<?xml version="1.0" encoding="UTF-8" standalone="no"?>
<!DOCTYPE svg PUBLIC "-//W3C//DTD SVG 1.1//EN" "http://www.w3.org/Graphics/SVG/1.1/DTD/svg11.dtd">
<svg xmlns="http://www.w3.org/2000/svg" version="1.1" viewBox="0.00 0.00 1024.00 1024.00" width="128" height="128">
<g stroke-width="2.00" fill="none" stroke-linecap="butt">
<path stroke="#808080" vector-effect="non-scaling-stroke" d="
  M 826.22 795.00
  L 579.51 468.80
  A 0.48 0.48 0.0 0 1 579.53 468.19
  L 789.06 228.72
  A 0.33 0.33 0.0 0 0 788.81 228.17
  L 694.40 228.17
  A 2.46 2.44 20.6 0 0 692.56 229.00
  L 535.08 408.98
  A 0.54 0.54 0.0 0 1 534.24 408.95
  L 398.04 228.87
  A 1.80 1.79 71.3 0 0 396.61 228.16
  L 199.90 228.16
  A 0.50 0.50 0.0 0 0 199.50 228.96
  L 435.78 537.86
  A 1.00 1.00 0.0 0 1 435.74 539.13
  L 211.82 795.03
  A 0.30 0.29 20.3 0 0 212.05 795.52
  L 306.94 795.52
  A 1.61 1.60 -69.1 0 0 308.14 794.98
  L 480.70 597.76
  A 0.59 0.59 0.0 0 1 481.62 597.79
  L 632.49 795.03
  A 1.27 1.27 0.0 0 0 633.49 795.52
  L 825.96 795.52
  A 0.33 0.32 -18.7 0 0 826.22 795.00"
/>
<path stroke="#808080" vector-effect="non-scaling-stroke" d="
  M 712.09 737.88
  A 0.33 0.33 0.0 0 0 712.35 737.35
  L 368.64 282.92
  A 0.33 0.33 0.0 0 0 368.38 282.79
  L 312.01 282.79
  A 0.33 0.33 0.0 0 0 311.75 283.32
  L 659.34 737.75
  A 0.33 0.33 0.0 0 0 659.60 737.88
  L 712.09 737.88"
/>
</g>
<path fill="#000000" d="
  M 1024.00 0.00
  L 1024.00 1024.00
  L 0.00 1024.00
  L 0.00 0.00
  L 1024.00 0.00
  Z
  M 826.22 795.00
  L 579.51 468.80
  A 0.48 0.48 0.0 0 1 579.53 468.19
  L 789.06 228.72
  A 0.33 0.33 0.0 0 0 788.81 228.17
  L 694.40 228.17
  A 2.46 2.44 20.6 0 0 692.56 229.00
  L 535.08 408.98
  A 0.54 0.54 0.0 0 1 534.24 408.95
  L 398.04 228.87
  A 1.80 1.79 71.3 0 0 396.61 228.16
  L 199.90 228.16
  A 0.50 0.50 0.0 0 0 199.50 228.96
  L 435.78 537.86
  A 1.00 1.00 0.0 0 1 435.74 539.13
  L 211.82 795.03
  A 0.30 0.29 20.3 0 0 212.05 795.52
  L 306.94 795.52
  A 1.61 1.60 -69.1 0 0 308.14 794.98
  L 480.70 597.76
  A 0.59 0.59 0.0 0 1 481.62 597.79
  L 632.49 795.03
  A 1.27 1.27 0.0 0 0 633.49 795.52
  L 825.96 795.52
  A 0.33 0.32 -18.7 0 0 826.22 795.00
  Z"
/>
<path fill="#ffffff" d="
  M 826.22 795.00
  A 0.33 0.32 -18.7 0 1 825.96 795.52
  L 633.49 795.52
  A 1.27 1.27 0.0 0 1 632.49 795.03
  L 481.62 597.79
  A 0.59 0.59 0.0 0 0 480.70 597.76
  L 308.14 794.98
  A 1.61 1.60 -69.1 0 1 306.94 795.52
  L 212.05 795.52
  A 0.30 0.29 20.3 0 1 211.82 795.03
  L 435.74 539.13
  A 1.00 1.00 0.0 0 0 435.78 537.86
  L 199.50 228.96
  A 0.50 0.50 0.0 0 1 199.90 228.16
  L 396.61 228.16
  A 1.80 1.79 71.3 0 1 398.04 228.87
  L 534.24 408.95
  A 0.54 0.54 0.0 0 0 535.08 408.98
  L 692.56 229.00
  A 2.46 2.44 20.6 0 1 694.40 228.17
  L 788.81 228.17
  A 0.33 0.33 0.0 0 1 789.06 228.72
  L 579.53 468.19
  A 0.48 0.48 0.0 0 0 579.51 468.80
  L 826.22 795.00
  Z
  M 712.09 737.88
  A 0.33 0.33 0.0 0 0 712.35 737.35
  L 368.64 282.92
  A 0.33 0.33 0.0 0 0 368.38 282.79
  L 312.01 282.79
  A 0.33 0.33 0.0 0 0 311.75 283.32
  L 659.34 737.75
  A 0.33 0.33 0.0 0 0 659.60 737.88
  L 712.09 737.88
  Z"
/>
<path fill="#000000" d="
  M 712.09 737.88
  L 659.60 737.88
  A 0.33 0.33 0.0 0 1 659.34 737.75
  L 311.75 283.32
  A 0.33 0.33 0.0 0 1 312.01 282.79
  L 368.38 282.79
  A 0.33 0.33 0.0 0 1 368.64 282.92
  L 712.35 737.35
  A 0.33 0.33 0.0 0 1 712.09 737.88
  Z"
/>
</svg>