<svg width="11" height="11" viewBox="0 0 11 11" fill="none" xmlns="http://www.w3.org/2000/svg">
<path d="M1.70698 0.292893C1.31646 -0.0976311 0.683446 -0.0976311 0.292922 0.292893C-0.0976027 0.683417 -0.0976027 1.31643 0.292922 1.70696L9.29292 10.707C9.68345 11.0975 10.3165 11.0975 10.707 10.707C11.0975 10.3164 11.0975 9.68342 10.707 9.29289L1.70698 0.292893Z" fill="#7C7C7C"/>
<path d="M9.29289 0.292893C9.68342 -0.0976311 10.3164 -0.0976311 10.707 0.292893C11.0975 0.683417 11.0975 1.31643 10.707 1.70696L1.70696 10.707C1.31643 11.0975 0.683417 11.0975 0.292893 10.707C-0.0976311 10.3164 -0.0976311 9.68342 0.292893 9.29289L9.29289 0.292893Z" fill="#7C7C7C"/>
</svg>
