<?xml version="1.0" encoding="UTF-8" standalone="no"?>
<!DOCTYPE svg PUBLIC "-//W3C//DTD SVG 1.1//EN" "http://www.w3.org/Graphics/SVG/1.1/DTD/svg11.dtd">
<svg xmlns="http://www.w3.org/2000/svg" version="1.1" viewBox="0.00 0.00 180.00 180.00" width="128" height="128">
<path fill="#0aad0a" d="
  M 91.49 11.25
  Q 99.16 11.25 99.93 11.26
  A 0.31 0.31 0.0 0 1 100.24 11.57
  L 100.24 40.75
  A 0.21 0.21 0.0 0 0 100.63 40.87
  Q 107.20 31.18 108.66 29.42
  C 114.36 22.53 125.58 24.87 126.44 34.36
  Q 127.03 40.81 120.37 45.13
  Q 104.95 55.11 91.66 63.62
  Q 91.63 63.64 91.49 63.64
  Q 91.36 63.64 91.33 63.62
  Q 78.03 55.11 62.61 45.14
  Q 55.95 40.82 56.54 34.37
  C 57.40 24.88 68.61 22.54 74.32 29.42
  Q 75.78 31.18 82.35 40.87
  A 0.21 0.21 0.0 0 0 82.74 40.75
  L 82.73 11.57
  A 0.31 0.31 0.0 0 1 83.04 11.26
  Q 83.81 11.25 91.49 11.25
  Z"
/>
<path fill="#ff7009" d="
  M 91.48 68.12
  C 113.30 68.12 126.24 87.71 120.90 108.27
  Q 119.88 112.16 116.52 119.53
  Q 104.11 146.69 94.43 168.07
  A 1.00 0.98 -80.2 0 1 93.63 168.64
  Q 92.57 168.74 91.48 168.74
  Q 90.38 168.74 89.33 168.64
  A 1.00 0.98 80.2 0 1 88.52 168.07
  Q 78.84 146.69 66.43 119.53
  Q 63.07 112.16 62.05 108.27
  C 56.71 87.72 69.65 68.12 91.48 68.12
  Z"
/>
</svg>